<?xml version="1.0" encoding="UTF-8" standalone="no"?>
<svg
   id="Layer_2"
   viewBox="0 32 399.99999 400.00001"
   version="1.1"
   width="400"
   height="400"
   xmlns="http://www.w3.org/2000/svg"
   xmlns:svg="http://www.w3.org/2000/svg">
  <defs
     id="defs2">
    <style
       id="style1">.cls-1{fill:url(#linear-gradient);}</style>
    <linearGradient
       id="linear-gradient"
       x1="22.67"
       y1="425.72"
       x2="201.83"
       y2="115.4"
       gradientUnits="userSpaceOnUse"
       gradientTransform="translate(20.83875,0.07)">
      <stop
         offset="0"
         stop-color="#ab543a"
         id="stop1" />
      <stop
         offset="1"
         stop-color="#ff7e57"
         id="stop2" />
    </linearGradient>
  </defs>
  <path
     class="cls-1"
     d="M 356.48875,192.73 88.84875,38.21 c -30.23,-17.45 -68.01,4.36 -68.01,39.27 v 309.04 c 0,34.91 37.78,56.72 68.01,39.27 l 267.64,-154.52 c 30.23,-17.45 30.23,-61.08 0,-78.54 z m -80.12,84.14 c -19.1,17.66 -38.75,26.49 -58.4,26.49 -19.65,0 -39.29,-8.83 -58.39,-26.49 -14.39,-13.3 -28.55,-20.05 -42.11,-20.05 -13.56,0 -27.72,6.75 -42.1,20.05 -4.87,4.5 -12.46,4.2 -16.96,-0.67 -4.5,-4.86 -4.2,-12.45 0.67,-16.95 38.2,-35.33 78.59,-35.33 116.79,0 14.38,13.3 28.55,20.04 42.1,20.04 13.55,0 27.72,-6.74 42.11,-20.04 4.86,-4.5 12.46,-4.21 16.95,0.66 4.5,4.87 4.21,12.46 -0.66,16.96 z m 0,-72.76 c -19.1,17.67 -38.75,26.5 -58.4,26.5 -19.65,0 -39.29,-8.83 -58.39,-26.5 -14.39,-13.3 -28.55,-20.04 -42.11,-20.04 -13.56,0 -27.72,6.74 -42.1,20.04 -4.87,4.5 -12.46,4.21 -16.96,-0.66 -4.5,-4.87 -4.2,-12.46 0.67,-16.96 38.2,-35.32 78.59,-35.32 116.79,0 14.38,13.3 28.55,20.05 42.1,20.05 13.55,0 27.72,-6.75 42.11,-20.05 4.86,-4.5 12.46,-4.2 16.95,0.67 4.5,4.86 4.21,12.45 -0.66,16.95 z"
     id="path2"
     style="fill:url(#linear-gradient)" />
</svg>
